<?xml version="1.0" encoding="UTF-8" standalone="no"?>
<svg width="674px" height="131px" viewBox="0 0 674 131" version="1.1" xmlns="http://www.w3.org/2000/svg" xmlns:xlink="http://www.w3.org/1999/xlink" xmlns:sketch="http://www.bohemiancoding.com/sketch/ns">
    <!-- Generator: Sketch 3.3 (11970) - http://www.bohemiancoding.com/sketch -->
    <title>cloud2</title>
    <desc>Created with Sketch.</desc>
    <defs>
        <linearGradient x1="-26.1171377%" y1="50%" x2="119.160081%" y2="50%" id="linearGradient-1">
            <stop stop-color="#98FF49" offset="0%"></stop>
            <stop stop-color="#17E2DC" offset="100%"></stop>
        </linearGradient>
    </defs>
    <g id="Page-1" stroke="none" stroke-width="1" fill="none" fill-rule="evenodd" sketch:type="MSPage">
        <g id="Desktop-HD-Copy-8" sketch:type="MSArtboardGroup" transform="translate(-1458.000000, -287.000000)" fill="url(#linearGradient-1)">
            <path d="M1887.9327,330.609551 L1530.53219,330.609551 L1530.53219,330.609551 L1633.86374,330.609551 C1645.9062,330.609551 1655.66854,340.369233 1655.66854,352.414326 C1655.66854,364.456771 1645.91384,374.219101 1633.86374,374.219101 L1530.53219,374.219101 L1887.9327,374.219101 L1819.67839,374.219101 C1807.63594,374.219101 1797.8736,364.459419 1797.8736,352.414326 C1797.8736,340.371881 1807.62829,330.609551 1819.67839,330.609551 L1887.9327,330.609551 L1887.9327,330.609551 Z M1557,396.023876 C1557,383.981432 1566.76059,374.219101 1578.79811,374.219101 L2109.71031,374.219101 C2121.74908,374.219101 2131.50843,383.978784 2131.50843,396.023876 C2131.50843,408.066321 2121.74783,417.828652 2109.71031,417.828652 L1578.79811,417.828652 C1566.75935,417.828652 1557,408.068969 1557,396.023876 Z M1458.49157,308.804775 C1458.49157,296.76233 1468.25217,287 1480.28969,287 L2011.20189,287 C2023.24065,287 2033,296.759683 2033,308.804775 C2033,320.84722 2023.23941,330.609551 2011.20189,330.609551 L1480.28969,330.609551 C1468.25092,330.609551 1458.49157,320.849868 1458.49157,308.804775 Z" id="cloud2" sketch:type="MSShapeGroup"></path>
        </g>
    </g>
</svg>