<?xml version="1.0" encoding="UTF-8" standalone="no"?>
<svg width="1848px" height="423px" viewBox="0 0 1848 423" version="1.1" xmlns="http://www.w3.org/2000/svg" xmlns:xlink="http://www.w3.org/1999/xlink" xmlns:sketch="http://www.bohemiancoding.com/sketch/ns">
    <!-- Generator: Sketch 3.3.2 (12043) - http://www.bohemiancoding.com/sketch -->
    <title>Group</title>
    <desc>Created with Sketch.</desc>
    <defs>
        <linearGradient x1="0%" y1="0%" x2="101.999998%" y2="100.999999%" id="linearGradient-1">
            <stop stop-color="#2069FF" offset="0%"></stop>
            <stop stop-color="#DE54F5" offset="100%"></stop>
        </linearGradient>
        <linearGradient x1="0.25781251%" y1="49.7500002%" x2="101.257813%" y2="49.7500002%" id="linearGradient-2">
            <stop stop-color="#3784E1" offset="0%"></stop>
            <stop stop-color="#50EDCE" offset="100%"></stop>
        </linearGradient>
        <linearGradient x1="-26.1171377%" y1="50%" x2="119.160081%" y2="50%" id="linearGradient-3">
            <stop stop-color="#98FF49" offset="0%"></stop>
            <stop stop-color="#17E2DC" offset="100%"></stop>
        </linearGradient>
        <linearGradient x1="0%" y1="0%" x2="96.4462673%" y2="95.5007166%" id="linearGradient-4">
            <stop stop-color="#EC00FF" offset="0%"></stop>
            <stop stop-color="#EA476C" offset="100%"></stop>
        </linearGradient>
    </defs>
    <g id="Page-1" stroke="none" stroke-width="1" fill="none" fill-rule="evenodd" sketch:type="MSPage">
        <g id="Desktop-HD-Copy-8" sketch:type="MSArtboardGroup" transform="translate(-284.000000, -176.000000)">
            <g id="Group" sketch:type="MSLayerGroup" transform="translate(284.000000, 176.000000)">
                <path d="M1149.1962,400.000002 C1153.20907,398.203526 1156,394.177946 1156,389.5 C1156,383.147329 1150.84799,378 1144.49267,378 L1089.99277,378 L1089.99277,378 L1278.50723,378 L1278.50723,378 L1242.50733,378 C1236.1447,378 1231,383.148725 1231,389.5 C1231,394.178787 1233.79467,398.203745 1237.80645,400 L1261.49204,400 C1263.16671,400 1264.75784,400.357371 1266.19317,401 L1278.50723,401 L1266.19317,401 C1270.20518,402.796255 1273,406.821213 1273,411.5 C1273,417.851275 1267.85219,423 1261.49204,423 L981.507964,423 C975.152291,423 970,417.852671 970,411.5 C970,405.148725 975.14781,400 981.507964,400 L1149.1962,400 L1149.1962,400.000002 Z M1023,366.5 C1023,360.148725 1028.14781,355 1034.50796,355 L1314.49204,355 C1320.84771,355 1326,360.147329 1326,366.5 C1326,372.851275 1320.85219,378 1314.49204,378 L1034.50796,378 C1028.15229,378 1023,372.852671 1023,366.5 Z" id="cloud5" fill="url(#linearGradient-1)" sketch:type="MSShapeGroup"></path>
                <path d="M290.943522,73.7219127 C297.442794,70.8102087 301.966292,64.2856034 301.966292,56.7036517 C301.966292,46.407328 293.621298,38.0646067 283.327227,38.0646067 L194.997883,38.0646067 L500.50914,38.0646067 L500.50914,38.0646067 L442.164346,38.0646067 C431.86374,38.0646067 423.525281,46.4095914 423.525281,56.7036517 C423.525281,64.2869668 428.051961,70.8105646 434.550072,73.7219101 L472.964963,73.7219101 C475.676547,73.7219101 478.25285,74.301133 480.576903,75.3426966 L500.50914,75.3426966 L480.576903,75.3426966 C487.073022,78.2540421 491.598315,84.77764 491.598315,92.3609551 C491.598315,102.655015 483.254814,111 472.964963,111 L19.1333515,111 C8.84243561,111 0.5,102.657279 0.5,92.3609551 C0.5,82.0668948 8.84350069,73.7219101 19.1333515,73.7219101 L290.943528,73.7219101 L290.943522,73.7219127 Z M86.4016854,19.4255618 C86.4016854,9.13150152 94.7451861,0.786516854 105.035037,0.786516854 L558.866649,0.786516854 C569.157564,0.786516854 577.5,9.12923814 577.5,19.4255618 C577.5,29.7196221 569.156499,38.0646067 558.866649,38.0646067 L105.035037,38.0646067 C94.744121,38.0646067 86.4016854,29.7218855 86.4016854,19.4255618 Z" id="cloud4" fill="url(#linearGradient-1)" sketch:type="MSShapeGroup"></path>
                <path d="M491.039444,169.132354 C493.457558,168.049185 495.147059,165.621997 495.147059,162.801471 C495.147059,158.979818 492.040702,155.867647 488.208816,155.867647 L455.355492,155.867647 L455.355492,155.867647 L569.004802,155.867647 L569.004802,155.867647 L547.30589,155.867647 C543.482014,155.867647 540.367647,158.972026 540.367647,162.801471 C540.367647,165.617291 542.05404,168.047944 544.474492,169.132353 L558.752551,169.132353 C559.761133,169.132353 560.719454,169.347935 561.584105,169.735294 L569.004802,169.735294 L561.584105,169.735294 C564.004691,170.819703 565.691176,173.250356 565.691176,176.066176 C565.691176,179.895621 562.577803,183 558.752551,183 L389.938625,183 C386.106528,183 383,179.887829 383,176.066176 C383,172.236731 386.113374,169.132353 389.938625,169.132353 L491.039446,169.132353 L491.039444,169.132354 Z M414.955882,148.933824 C414.955882,145.104379 418.069256,142 421.894508,142 L590.708433,142 C594.54053,142 597.647059,145.112171 597.647059,148.933824 C597.647059,152.763269 594.533685,155.867647 590.708433,155.867647 L421.894508,155.867647 C418.062411,155.867647 414.955882,152.755476 414.955882,148.933824 Z" id="cloud3" fill="url(#linearGradient-2)" sketch:type="MSShapeGroup"></path>
                <path d="M1603.9327,154.609551 L1246.53219,154.609551 L1246.53219,154.609551 L1349.86374,154.609551 C1361.9062,154.609551 1371.66854,164.369233 1371.66854,176.414326 C1371.66854,188.456771 1361.91384,198.219101 1349.86374,198.219101 L1246.53219,198.219101 L1603.9327,198.219101 L1535.67839,198.219101 C1523.63594,198.219101 1513.8736,188.459419 1513.8736,176.414326 C1513.8736,164.371881 1523.62829,154.609551 1535.67839,154.609551 L1603.9327,154.609551 L1603.9327,154.609551 Z M1273,220.023876 C1273,207.981432 1282.76059,198.219101 1294.79811,198.219101 L1825.71031,198.219101 C1837.74908,198.219101 1847.50843,207.978784 1847.50843,220.023876 C1847.50843,232.066321 1837.74783,241.828652 1825.71031,241.828652 L1294.79811,241.828652 C1282.75935,241.828652 1273,232.068969 1273,220.023876 Z M1174.49157,132.804775 C1174.49157,120.76233 1184.25217,111 1196.28969,111 L1727.20189,111 C1739.24065,111 1749,120.759683 1749,132.804775 C1749,144.84722 1739.23941,154.609551 1727.20189,154.609551 L1196.28969,154.609551 C1184.25092,154.609551 1174.49157,144.849868 1174.49157,132.804775 Z" id="cloud2" fill="url(#linearGradient-3)" sketch:type="MSShapeGroup"></path>
                <path d="M1063.24736,55 L786.246911,55 L798.992671,55 C805.347993,55 810.5,60.1473289 810.5,66.5 C810.5,72.8512746 805.355301,78 798.992671,78 L786.246911,78 L1063.24736,78 L1010.99588,78 C1004.64688,78 999.5,72.8526711 999.5,66.5 C999.5,60.1487254 1004.64553,55 1010.99588,55 L1063.24736,55 Z M1033.99736,101 L813.996911,101 L813.996911,101 L858.492671,101 C864.847993,101 870,106.147329 870,112.5 C870,118.851275 864.855301,124 858.492671,124 L813.996911,124 L1033.99736,124 L956.495879,124 C950.146881,124 945,118.852671 945,112.5 C945,106.148725 950.145528,101 956.495879,101 L1033.99736,101 Z M845,135.5 C845,129.148725 850.14781,124 856.507964,124 L1136.49204,124 C1142.84771,124 1148,129.147329 1148,135.5 C1148,141.851275 1142.85219,147 1136.49204,147 L856.507964,147 C850.152291,147 845,141.852671 845,135.5 Z M787,89.5 C787,83.1487254 792.14781,78 798.507964,78 L1078.49204,78 C1084.84771,78 1090,83.1473289 1090,89.5 C1090,95.8512746 1084.85219,101 1078.49204,101 L798.507964,101 C792.152291,101 787,95.8526711 787,89.5 Z M739,43.5 C739,37.1487254 744.151172,32 750.507982,32 L1131.99202,32 C1138.3477,32 1143.5,37.1473289 1143.5,43.5 C1143.5,49.8512746 1138.34883,55 1131.99202,55 L750.507982,55 C744.152299,55 739,49.8526711 739,43.5 Z" id="cloud1" fill="url(#linearGradient-4)" sketch:type="MSShapeGroup"></path>
            </g>
        </g>
    </g>
</svg>