<?xml version="1.0" encoding="UTF-8" standalone="no"?>
<svg width="45px" height="60px" viewBox="0 0 45 60" version="1.1" xmlns="http://www.w3.org/2000/svg" xmlns:xlink="http://www.w3.org/1999/xlink">
    <defs></defs>
    <g stroke="none" stroke-width="1" fill="none" fill-rule="evenodd">
        <path d="M13.797,17.841 C13.227,17.841 12.754,17.39 12.732,16.816 C12.537,11.847 13.69,10.714 15.919,8.985 C16.437,8.583 17.024,8.128 17.658,7.538 C20.243,5.133 19.657,1.718 19.631,1.574 C19.526,0.996 19.907,0.44 20.485,0.332 C21.065,0.224 21.618,0.602 21.728,1.179 C21.764,1.369 22.576,5.879 19.112,9.101 C18.408,9.756 17.781,10.242 17.227,10.672 C15.442,12.057 14.703,12.63 14.864,16.733 C14.887,17.322 14.429,17.818 13.84,17.841 C13.825,17.84 13.811,17.841 13.797,17.841 Z M21.229,18.36 C20.657,18.36 20.183,17.906 20.163,17.33 C20.033,13.542 20.863,12.618 22.341,11.312 C22.691,11.003 23.053,10.683 23.459,10.254 C25.067,8.548 24.687,6.007 24.683,5.982 C24.591,5.402 24.985,4.854 25.565,4.76 C26.146,4.665 26.691,5.055 26.788,5.635 C26.812,5.781 27.358,9.23 25.011,11.719 C24.539,12.219 24.122,12.587 23.754,12.912 C22.619,13.915 22.194,14.29 22.296,17.257 C22.316,17.846 21.855,18.34 21.266,18.36 L21.229,18.36 Z M44.14,37.648 C44.14,34.713 43.292,32.74 41.621,31.782 C40.325,31.039 38.648,30.977 36.636,31.596 C36.262,31.711 35.913,31.84 35.599,31.967 C35.618,31.775 35.64,31.588 35.658,31.395 C36.128,26.407 36.093,22.859 36.091,22.71 L36.079,21.655 L0.639,21.655 L0.677,22.758 C1.778,54.954 11.838,59.511 12.265,59.689 L12.462,59.771 L24.828,59.771 L25.122,59.533 C27.905,57.282 30.202,53.745 31.978,48.999 C36.25,48.465 44.14,45.435 44.14,37.648 Z M33.952,23.791 C33.935,24.891 33.879,26.787 33.706,29.145 C29.197,32.167 23.45,31.085 17.883,30.033 C16.956,29.858 16.08,29.693 15.205,29.545 C10.589,28.768 5.813,29.43 3.242,29.93 C3.074,28.015 2.941,25.972 2.85,23.791 L33.952,23.791 L33.952,23.791 Z M24.064,57.64 L12.943,57.64 C11.867,56.983 5.614,52.324 3.45,32.069 C5.807,31.601 10.469,30.912 14.851,31.65 C15.705,31.794 16.571,31.957 17.487,32.13 C20.353,32.671 23.4,33.247 26.386,33.247 C28.837,33.247 31.246,32.858 33.479,31.745 C33,36.542 32.22,40.887 31.152,44.659 C29.439,50.711 27.055,55.075 24.064,57.64 L24.064,57.64 Z M36.968,45.196 C35.397,46.01 33.806,46.456 32.771,46.685 C32.919,46.213 33.065,45.733 33.204,45.241 C34.117,42.018 34.823,38.396 35.319,34.453 C36.303,33.906 39.028,32.756 40.56,33.634 C41.519,34.184 42.006,35.534 42.006,37.648 C42.007,40.923 40.311,43.463 36.968,45.196 L36.968,45.196 Z" fill="#FFFFFF"></path>
    </g>
</svg>