<?xml version="1.0" encoding="UTF-8" standalone="no"?>
<svg width="578px" height="111px" viewBox="0 0 578 111" version="1.1" xmlns="http://www.w3.org/2000/svg" xmlns:xlink="http://www.w3.org/1999/xlink" xmlns:sketch="http://www.bohemiancoding.com/sketch/ns">
    <!-- Generator: Sketch 3.3 (11970) - http://www.bohemiancoding.com/sketch -->
    <title>cloud4</title>
    <desc>Created with Sketch.</desc>
    <defs>
        <linearGradient x1="0%" y1="0%" x2="101.999998%" y2="100.999999%" id="linearGradient-1">
            <stop stop-color="#2069FF" offset="0%"></stop>
            <stop stop-color="#DE54F5" offset="100%"></stop>
        </linearGradient>
    </defs>
    <g id="Page-1" stroke="none" stroke-width="1" fill="none" fill-rule="evenodd" sketch:type="MSPage">
        <g id="Desktop-HD-Copy-8" sketch:type="MSArtboardGroup" transform="translate(-284.000000, -176.000000)" fill="url(#linearGradient-1)">
            <path d="M574.943522,249.721913 C581.442794,246.810209 585.966292,240.285603 585.966292,232.703652 C585.966292,222.407328 577.621298,214.064607 567.327227,214.064607 L478.997883,214.064607 L784.50914,214.064607 L784.50914,214.064607 L726.164346,214.064607 C715.86374,214.064607 707.525281,222.409591 707.525281,232.703652 C707.525281,240.286967 712.051961,246.810565 718.550072,249.72191 L756.964963,249.72191 C759.676547,249.72191 762.25285,250.301133 764.576903,251.342697 L784.50914,251.342697 L764.576903,251.342697 C771.073022,254.254042 775.598315,260.77764 775.598315,268.360955 C775.598315,278.655015 767.254814,287 756.964963,287 L303.133351,287 C292.842436,287 284.5,278.657279 284.5,268.360955 C284.5,258.066895 292.843501,249.72191 303.133351,249.72191 L574.943528,249.72191 L574.943522,249.721913 Z M370.401685,195.425562 C370.401685,185.131502 378.745186,176.786517 389.035037,176.786517 L842.866649,176.786517 C853.157564,176.786517 861.5,185.129238 861.5,195.425562 C861.5,205.719622 853.156499,214.064607 842.866649,214.064607 L389.035037,214.064607 C378.744121,214.064607 370.401685,205.721885 370.401685,195.425562 Z" id="cloud4" sketch:type="MSShapeGroup"></path>
        </g>
    </g>
</svg>