<?xml version="1.0" encoding="UTF-8" standalone="no"?>
<svg width="409px" height="115px" viewBox="0 0 409 115" version="1.1" xmlns="http://www.w3.org/2000/svg" xmlns:xlink="http://www.w3.org/1999/xlink" xmlns:sketch="http://www.bohemiancoding.com/sketch/ns">
    <!-- Generator: Sketch 3.3 (11970) - http://www.bohemiancoding.com/sketch -->
    <title>cloud1</title>
    <desc>Created with Sketch.</desc>
    <defs>
        <linearGradient x1="0%" y1="0%" x2="96.4462673%" y2="95.5007166%" id="linearGradient-1">
            <stop stop-color="#EC00FF" offset="0%"></stop>
            <stop stop-color="#EA476C" offset="100%"></stop>
        </linearGradient>
    </defs>
    <g id="Page-1" stroke="none" stroke-width="1" fill="none" fill-rule="evenodd" sketch:type="MSPage">
        <g id="Desktop-HD-Copy-8" sketch:type="MSArtboardGroup" transform="translate(-1023.000000, -208.000000)" fill="url(#linearGradient-1)">
            <path d="M1347.24736,231 L1070.24691,231 L1082.99267,231 C1089.34799,231 1094.5,236.147329 1094.5,242.5 C1094.5,248.851275 1089.3553,254 1082.99267,254 L1070.24691,254 L1347.24736,254 L1294.99588,254 C1288.64688,254 1283.5,248.852671 1283.5,242.5 C1283.5,236.148725 1288.64553,231 1294.99588,231 L1347.24736,231 Z M1317.99736,277 L1097.99691,277 L1097.99691,277 L1142.49267,277 C1148.84799,277 1154,282.147329 1154,288.5 C1154,294.851275 1148.8553,300 1142.49267,300 L1097.99691,300 L1317.99736,300 L1240.49588,300 C1234.14688,300 1229,294.852671 1229,288.5 C1229,282.148725 1234.14553,277 1240.49588,277 L1317.99736,277 Z M1129,311.5 C1129,305.148725 1134.14781,300 1140.50796,300 L1420.49204,300 C1426.84771,300 1432,305.147329 1432,311.5 C1432,317.851275 1426.85219,323 1420.49204,323 L1140.50796,323 C1134.15229,323 1129,317.852671 1129,311.5 Z M1071,265.5 C1071,259.148725 1076.14781,254 1082.50796,254 L1362.49204,254 C1368.84771,254 1374,259.147329 1374,265.5 C1374,271.851275 1368.85219,277 1362.49204,277 L1082.50796,277 C1076.15229,277 1071,271.852671 1071,265.5 Z M1023,219.5 C1023,213.148725 1028.15117,208 1034.50798,208 L1415.99202,208 C1422.3477,208 1427.5,213.147329 1427.5,219.5 C1427.5,225.851275 1422.34883,231 1415.99202,231 L1034.50798,231 C1028.1523,231 1023,225.852671 1023,219.5 Z" id="cloud1" sketch:type="MSShapeGroup"></path>
        </g>
    </g>
</svg>