<?xml version="1.0" encoding="UTF-8" standalone="no"?>
<svg width="215px" height="41px" viewBox="0 0 215 41" version="1.1" xmlns="http://www.w3.org/2000/svg" xmlns:xlink="http://www.w3.org/1999/xlink" xmlns:sketch="http://www.bohemiancoding.com/sketch/ns">
    <!-- Generator: Sketch 3.3 (11970) - http://www.bohemiancoding.com/sketch -->
    <title>cloud3</title>
    <desc>Created with Sketch.</desc>
    <defs>
        <linearGradient x1="0.25781251%" y1="49.7500002%" x2="101.257813%" y2="49.7500002%" id="linearGradient-1">
            <stop stop-color="#3784E1" offset="0%"></stop>
            <stop stop-color="#50EDCE" offset="100%"></stop>
        </linearGradient>
    </defs>
    <g id="Page-1" stroke="none" stroke-width="1" fill="none" fill-rule="evenodd" sketch:type="MSPage">
        <g id="Desktop-HD-Copy-8" sketch:type="MSArtboardGroup" transform="translate(-667.000000, -318.000000)" fill="url(#linearGradient-1)">
            <path d="M775.039444,345.132354 C777.457558,344.049185 779.147059,341.621997 779.147059,338.801471 C779.147059,334.979818 776.040702,331.867647 772.208816,331.867647 L739.355492,331.867647 L739.355492,331.867647 L853.004802,331.867647 L853.004802,331.867647 L831.30589,331.867647 C827.482014,331.867647 824.367647,334.972026 824.367647,338.801471 C824.367647,341.617291 826.05404,344.047944 828.474492,345.132353 L842.752551,345.132353 C843.761133,345.132353 844.719454,345.347935 845.584105,345.735294 L853.004802,345.735294 L845.584105,345.735294 C848.004691,346.819703 849.691176,349.250356 849.691176,352.066176 C849.691176,355.895621 846.577803,359 842.752551,359 L673.938625,359 C670.106528,359 667,355.887829 667,352.066176 C667,348.236731 670.113374,345.132353 673.938625,345.132353 L775.039446,345.132353 L775.039444,345.132354 Z M698.955882,324.933824 C698.955882,321.104379 702.069256,318 705.894508,318 L874.708433,318 C878.54053,318 881.647059,321.112171 881.647059,324.933824 C881.647059,328.763269 878.533685,331.867647 874.708433,331.867647 L705.894508,331.867647 C702.062411,331.867647 698.955882,328.755476 698.955882,324.933824 Z" id="cloud3" sketch:type="MSShapeGroup"></path>
        </g>
    </g>
</svg>