<?xml version="1.0" encoding="UTF-8" standalone="no"?>
<svg width="1400px" height="423px" viewBox="0 0 1400 423" version="1.1" xmlns="http://www.w3.org/2000/svg" xmlns:xlink="http://www.w3.org/1999/xlink">
    <defs>
        <linearGradient x1="-26.1171377%" y1="50%" x2="122.589072%" y2="50%" id="linearGradient-1">
            <stop stop-color="#2069FF" offset="0%"></stop>
            <stop stop-color="#DE54F5" offset="100%"></stop>
        </linearGradient>
        <linearGradient x1="0%" y1="0%" x2="101.999998%" y2="100.999999%" id="linearGradient-2">
            <stop stop-color="#2069FF" offset="0%"></stop>
            <stop stop-color="#DE54F5" offset="100%"></stop>
        </linearGradient>
        <linearGradient x1="0.25781251%" y1="49.7500002%" x2="101.257813%" y2="49.7500002%" id="linearGradient-3">
            <stop stop-color="#3784E1" offset="0%"></stop>
            <stop stop-color="#50EDCE" offset="100%"></stop>
        </linearGradient>
        <linearGradient x1="-26.1171377%" y1="50%" x2="119.160081%" y2="50%" id="linearGradient-4">
            <stop stop-color="#98FF49" offset="0%"></stop>
            <stop stop-color="#17E2DC" offset="100%"></stop>
        </linearGradient>
        <linearGradient x1="0%" y1="0%" x2="96.4462673%" y2="95.5007166%" id="linearGradient-5">
            <stop stop-color="#EC00FF" offset="0%"></stop>
            <stop stop-color="#EA476C" offset="100%"></stop>
        </linearGradient>
    </defs>
    <g stroke="none" stroke-width="1" fill="none" fill-rule="evenodd">
        <g transform="translate(0.000000, -36.000000)">
            <g transform="translate(-39.000000, 36.000000)">
                <path d="M1101.20882,214.696299 C1105.0407,214.696299 1108.14706,217.808469 1108.14706,221.630122 C1108.14706,224.450649 1106.45756,226.877836 1104.03945,227.961005 L1002.93863,227.961005 C999.113374,227.961005 996,231.065383 996,234.894828 C996,238.716481 999.106528,241.828652 1002.93863,241.828652 L1171.75255,241.828652 C1175.5778,241.828652 1178.69118,238.724273 1178.69118,234.894828 C1178.69118,232.079008 1177.00469,229.648355 1174.58411,228.563946 C1173.71945,228.176587 1172.76113,227.961005 1171.75255,227.961005 L1157.47449,227.961005 C1155.05404,226.876596 1153.36765,224.445942 1153.36765,221.630122 C1153.36765,217.800677 1156.48201,214.696299 1160.30589,214.696299 L1203.70843,214.696299 C1207.53369,214.696299 1210.64706,211.59192 1210.64706,207.762475 C1210.64706,203.940822 1207.54053,200.828652 1203.70843,200.828652 L1034.89451,200.828652 C1031.06926,200.828652 1027.95588,203.93303 1027.95588,207.762475 C1027.95588,211.584128 1031.06241,214.696299 1034.89451,214.696299 L1101.20882,214.696299 L1101.20882,214.696299 Z" fill="url(#linearGradient-1)"></path>
                <path d="M1144.49267,378 C1150.84799,378 1156,383.161649 1156,389.5 C1156,394.177946 1153.1979,398.203526 1149.18737,400 L981.507964,400 C975.163644,400 970,405.148725 970,411.5 C970,417.838351 975.152291,423 981.507964,423 L1261.49204,423 C1267.83636,423 1273,417.851275 1273,411.5 C1273,406.829859 1270.2029,402.798532 1266.18827,401 C1264.75422,400.357551 1263.16481,400 1261.49204,400 L1237.81135,400 C1233.79694,398.201468 1231,394.170141 1231,389.5 C1231,383.148725 1236.16529,378 1242.50733,378 L1314.49204,378 C1320.83636,378 1326,372.851275 1326,366.5 C1326,360.161649 1320.84771,355 1314.49204,355 L1034.50796,355 C1028.16364,355 1023,360.148725 1023,366.5 C1023,372.838351 1028.15229,378 1034.50796,378 L1144.49268,378 L1144.49267,378 Z" fill="url(#linearGradient-1)"></path>
                <path d="M283.327227,38.0646067 C293.621298,38.0646067 301.966292,46.407328 301.966292,56.7036517 C301.966292,66.9977119 293.627833,75.3426966 283.327227,75.3426966 L283.327234,75.3426966 L19.1333515,75.3426966 C8.84350069,75.3426966 0.5,83.6876813 0.5,93.9817416 C0.5,104.278065 8.84243561,112.620787 19.1333515,112.620787 L472.964963,112.620787 C483.254814,112.620787 491.598315,104.275802 491.598315,93.9817416 C491.598315,83.6854179 483.255879,75.3426966 472.964963,75.3426966 L442.164346,75.3426966 C431.870275,75.3426966 423.525281,66.9999753 423.525281,56.7036517 C423.525281,46.4095914 431.86374,38.0646067 442.164346,38.0646067 L558.866649,38.0646067 C569.156499,38.0646067 577.5,29.7196221 577.5,19.4255618 C577.5,9.12923814 569.157564,0.786516854 558.866649,0.786516854 L105.035037,0.786516854 C94.7451861,0.786516854 86.4016854,9.13150152 86.4016854,19.4255618 C86.4016854,29.7218855 94.744121,38.0646067 105.035037,38.0646067 L283.327237,38.0646067 L283.327227,38.0646067 Z" fill="url(#linearGradient-2)"></path>
                <path d="M488.208816,155.867647 C492.040702,155.867647 495.147059,158.979818 495.147059,162.801471 C495.147059,166.630916 492.032692,169.735294 488.208816,169.735294 L488.208827,169.735294 L389.938625,169.735294 C386.113374,169.735294 383,172.839673 383,176.669118 C383,180.49077 386.106528,183.602941 389.938625,183.602941 L558.752551,183.602941 C562.577803,183.602941 565.691176,180.498563 565.691176,176.669118 C565.691176,172.847465 562.584648,169.735294 558.752551,169.735294 L547.30589,169.735294 C543.474004,169.735294 540.367647,166.623123 540.367647,162.801471 C540.367647,158.972026 543.482014,155.867647 547.30589,155.867647 L558.155346,155.867647 L590.708433,155.867647 C594.533685,155.867647 597.647059,152.763269 597.647059,148.933824 C597.647059,145.112171 594.54053,142 590.708433,142 L421.894508,142 C418.069256,142 414.955882,145.104379 414.955882,148.933824 C414.955882,152.755476 418.062411,155.867647 421.894508,155.867647 L488.208827,155.867647 L488.208816,155.867647 Z" fill="url(#linearGradient-3)"></path>
                <path d="M1535.67839,154.609551 C1523.62829,154.609551 1513.8736,164.371881 1513.8736,176.414326 C1513.8736,188.459419 1523.63594,198.219101 1535.67839,198.219101 L1825.71031,198.219101 C1837.74908,198.219101 1847.50843,207.978784 1847.50843,220.023876 C1847.50843,232.066321 1837.74783,241.828652 1825.71031,241.828652 L1294.79811,241.828652 C1282.75935,241.828652 1273,232.068969 1273,220.023876 C1273,207.981432 1282.76059,198.219101 1294.79811,198.219101 L1349.86375,198.219101 L1349.86374,198.219101 C1361.91384,198.219101 1371.66854,188.456771 1371.66854,176.414326 C1371.66854,164.369233 1361.9062,154.609551 1349.86374,154.609551 L1196.28969,154.609551 C1184.25092,154.609551 1174.49157,144.849868 1174.49157,132.804775 C1174.49157,120.76233 1184.25217,111 1196.28969,111 L1727.20189,111 C1739.24065,111 1749,120.759683 1749,132.804775 C1749,144.84722 1739.23941,154.609551 1727.20189,154.609551 L1535.67838,154.609551 L1535.67839,154.609551 Z" fill="url(#linearGradient-4)"></path>
                <path d="M798.745759,55 C805.101082,55 810.253089,60.1473289 810.253089,66.5 C810.253089,72.8512746 805.108389,78 798.745765,78 L798.507964,78 C792.14781,78 787,83.1487254 787,89.5 C787,95.8526711 792.152291,101 798.507964,101 L858.492671,101 C864.847993,101 870,106.147329 870,112.5 C870,118.851275 864.855301,124 858.492671,124 L858.492683,124 L856.507964,124 C850.14781,124 845,129.148725 845,135.5 C845,141.852671 850.152291,147 856.507964,147 L1136.49204,147 C1142.85219,147 1148,141.851275 1148,135.5 C1148,129.147329 1142.84771,124 1136.49204,124 L956.495879,124 C950.146881,124 945,118.852671 945,112.5 C945,106.148725 950.145528,101 956.495879,101 L956.495873,101 L1078.49204,101 C1084.85219,101 1090,95.8512746 1090,89.5 C1090,83.1473289 1084.84771,78 1078.49204,78 L1010.74897,78 C1004.39997,78 999.253089,72.8526711 999.253089,66.5 C999.253089,60.1487254 1004.39862,55 1010.74897,55 L1131.50624,55 C1137.8552,55 1143,49.8512746 1143,43.5 C1143,37.1473289 1137.85407,32 1131.50624,32 L750.493757,32 C744.144805,32 739,37.1487254 739,43.5 C739,49.8526711 744.14593,55 750.493757,55 L798.74577,55 L798.745759,55 Z" fill="url(#linearGradient-5)"></path>
            </g>
        </g>
    </g>
</svg>