<?xml version="1.0" encoding="UTF-8" standalone="no"?>
<svg width="338px" height="62px" viewBox="0 0 338 62" version="1.1" xmlns="http://www.w3.org/2000/svg" xmlns:xlink="http://www.w3.org/1999/xlink">
    <defs>
        <linearGradient x1="-26.1171377%" y1="50%" x2="119.160081%" y2="50%" id="linearGradient-1">
            <stop stop-color="#98FF49" offset="0%"></stop>
            <stop stop-color="#17E2DC" offset="100%"></stop>
        </linearGradient>
    </defs>
    <g stroke="none" stroke-width="1" fill="none" fill-rule="evenodd">
        <g transform="translate(-558.000000, -602.000000)">
            <g transform="translate(557.647059, 602.000000)">
                <path d="M3,31 L3,31 C3,47.0185956 15.9850691,60 32.0061505,60 L306.99385,60 C323.015622,60 336,47.0172872 336,31 C336,14.9814044 323.014931,2 306.99385,2 L32.0061505,2 C15.9843781,2 3,14.9827128 3,31 L3,31 Z" fill="#0A1115"></path>
                <path d="M3,31 L3,31 C3,47.0185956 15.9850691,60 32.0061505,60 L306.99385,60 C323.015622,60 336,47.0172872 336,31 C336,14.9814044 323.014931,2 306.99385,2 L32.0061505,2 C15.9843781,2 3,14.9827128 3,31 L3,31 Z M1,31 C1,13.8791728 14.878779,0 32.0061505,0 L306.99385,0 C324.118074,0 338,13.8754084 338,31 C338,48.1208272 324.121221,62 306.99385,62 L32.0061505,62 C14.8819264,62 1,48.1245916 1,31 L1,31 Z" fill="url(#linearGradient-1)"></path>
                <path d="M58.6060735,24.0033213 C57.789521,24.3711159 56.9127507,24.6212162 55.9950324,24.7315545 C56.9320204,24.160247 57.6546333,23.2530204 57.9942613,22.1717043 C57.1150823,22.7013285 56.1419637,23.0887388 55.1062186,23.2947038 C54.2776225,22.394833 53.0949462,21.8333333 51.7870169,21.8333333 C49.2771416,21.8333333 47.241782,23.9052427 47.241782,26.462641 C47.241782,26.8255316 47.2803214,27.1786144 47.3598088,27.5169854 C43.5805435,27.3232803 40.2300286,25.4818555 37.98752,22.6817128 C37.5973091,23.3633587 37.3732991,24.160247 37.3732991,25.0086265 C37.3732991,26.6122108 38.1753994,28.0294459 39.3942064,28.8606616 C38.6499152,28.8361419 37.9489807,28.627725 37.3347598,28.2819981 L37.3347598,28.3383933 C37.3347598,30.5819402 38.9028297,32.4527886 40.981546,32.8769783 C40.6009699,32.9824127 40.1987154,33.0388079 39.7844173,33.0388079 C39.4905548,33.0388079 39.2063271,33.0118363 38.9293255,32.9554411 C39.5074157,34.794414 41.1862863,36.1331862 43.1758803,36.1699657 C41.619854,37.4131113 39.6591644,38.1511524 37.5298652,38.1511524 C37.1637414,38.1511524 36.8000262,38.1290847 36.4459459,38.0874014 C38.4572184,39.399202 40.8466582,40.1666667 43.4143426,40.1666667 C51.777382,40.1666667 56.3515214,33.1148188 56.3515214,26.9971691 C56.3515214,26.79856 56.346704,26.597499 56.3370692,26.3988899 C57.225883,25.7466676 57.99667,24.9326156 58.6060735,24.0033213 Z M77.18,32.339 L76.72,30.739 C76.519999,30.0456632 76.320001,29.332337 76.12,28.599 C75.919999,27.865663 75.7266676,27.1390036 75.54,26.419 L75.46,26.419 C75.2733324,27.152337 75.0866676,27.8823297 74.9,28.609 C74.7133324,29.3356703 74.5133344,30.0456632 74.3,30.739 L73.84,32.339 L77.18,32.339 Z M77.7,34.159 L73.32,34.159 L72.3,37.699 L69.92,37.699 L74.2,24.619 L76.92,24.619 L81.18,37.699 L78.72,37.699 L77.7,34.159 Z M82.74,24.619 L86.22,24.619 C88.22001,24.619 89.7833277,25.1589946 90.91,26.239 C92.0366723,27.3190054 92.6,28.9389892 92.6,31.099 C92.6,32.1790054 92.4566681,33.1323292 92.17,33.959 C91.8833319,34.7856708 91.4700027,35.4756639 90.93,36.029 C90.3899973,36.5823361 89.7333372,36.9989986 88.96,37.279 C88.1866628,37.5590014 87.3133382,37.699 86.34,37.699 L82.74,37.699 L82.74,24.619 Z M86.06,35.819 C87.39334,35.819 88.4199964,35.4356705 89.14,34.669 C89.8600036,33.9023295 90.22,32.7123414 90.22,31.099 C90.22,29.498992 89.8566703,28.332337 89.13,27.599 C88.4033297,26.865663 87.3800066,26.499 86.06,26.499 L85.06,26.499 L85.06,35.819 L86.06,35.819 Z M95.2,24.619 L98.68,24.619 C100.68001,24.619 102.243328,25.1589946 103.37,26.239 C104.496672,27.3190054 105.06,28.9389892 105.06,31.099 C105.06,32.1790054 104.916668,33.1323292 104.63,33.959 C104.343332,34.7856708 103.930003,35.4756639 103.39,36.029 C102.849997,36.5823361 102.193337,36.9989986 101.42,37.279 C100.646663,37.5590014 99.7733382,37.699 98.8,37.699 L95.2,37.699 L95.2,24.619 Z M98.52,35.819 C99.85334,35.819 100.879996,35.4356705 101.6,34.669 C102.320004,33.9023295 102.68,32.7123414 102.68,31.099 C102.68,29.498992 102.31667,28.332337 101.59,27.599 C100.86333,26.865663 99.8400066,26.499 98.52,26.499 L97.52,26.499 L97.52,35.819 L98.52,35.819 Z M113.94,32.839 L110,24.619 L112.48,24.619 L113.9,27.959 C114.086668,28.4523358 114.276666,28.9289977 114.47,29.389 C114.663334,29.8490023 114.859999,30.3323308 115.06,30.839 L115.14,30.839 C115.353334,30.3323308 115.563332,29.8490023 115.77,29.389 C115.976668,28.9289977 116.173332,28.4523358 116.36,27.959 L117.78,24.619 L120.2,24.619 L116.26,32.839 L116.26,37.699 L113.94,37.699 L113.94,32.839 Z M126.48,37.939 C125.626662,37.939 124.84667,37.7823349 124.14,37.469 C123.43333,37.1556651 122.823336,36.7023363 122.31,36.109 C121.796664,35.5156637 121.400001,34.7990042 121.12,33.959 C120.839999,33.1189958 120.7,32.165672 120.7,31.099 C120.7,30.0456614 120.839999,29.1023375 121.12,28.269 C121.400001,27.4356625 121.796664,26.7323362 122.31,26.159 C122.823336,25.5856638 123.43333,25.1456682 124.14,24.839 C124.84667,24.5323318 125.626662,24.379 126.48,24.379 C127.333338,24.379 128.11333,24.5323318 128.82,24.839 C129.52667,25.1456682 130.133331,25.5856638 130.64,26.159 C131.146669,26.7323362 131.539999,27.4356625 131.82,28.269 C132.100001,29.1023375 132.24,30.0456614 132.24,31.099 C132.24,32.165672 132.100001,33.1189958 131.82,33.959 C131.539999,34.7990042 131.146669,35.5156637 130.64,36.109 C130.133331,36.7023363 129.52667,37.1556651 128.82,37.469 C128.11333,37.7823349 127.333338,37.939 126.48,37.939 L126.48,37.939 Z M126.48,35.919 C126.986669,35.919 127.449998,35.8056678 127.87,35.579 C128.290002,35.3523322 128.646665,35.0290021 128.94,34.609 C129.233335,34.1889979 129.459999,33.6823363 129.62,33.089 C129.780001,32.4956637 129.86,31.832337 129.86,31.099 C129.86,29.632326 129.553336,28.4823375 128.94,27.649 C128.326664,26.8156625 127.506672,26.399 126.48,26.399 C125.439995,26.399 124.613336,26.8156625 124,27.649 C123.386664,28.4823375 123.08,29.632326 123.08,31.099 C123.08,31.832337 123.159999,32.4956637 123.32,33.089 C123.480001,33.6823363 123.709998,34.1889979 124.01,34.609 C124.310001,35.0290021 124.666665,35.3523322 125.08,35.579 C125.493335,35.8056678 125.959997,35.919 126.48,35.919 L126.48,35.919 Z M134.74,24.619 L137.06,24.619 L137.06,32.139 C137.06,32.8456702 137.123333,33.4423309 137.25,33.929 C137.376667,34.4156691 137.556666,34.8056652 137.79,35.099 C138.023335,35.3923348 138.303332,35.6023327 138.63,35.729 C138.956668,35.8556673 139.319998,35.919 139.72,35.919 C140.120002,35.919 140.486665,35.8556673 140.82,35.729 C141.153335,35.6023327 141.436666,35.3923348 141.67,35.099 C141.903335,34.8056652 142.086666,34.4156691 142.22,33.929 C142.353334,33.4423309 142.42,32.8456702 142.42,32.139 L142.42,24.619 L144.66,24.619 L144.66,31.959 C144.66,33.0390054 144.543335,33.9556629 144.31,34.709 C144.076666,35.4623371 143.746669,36.0789976 143.32,36.559 C142.893331,37.0390024 142.37667,37.3889989 141.77,37.609 C141.16333,37.8290011 140.480004,37.939 139.72,37.939 C138.959996,37.939 138.273336,37.8290011 137.66,37.609 C137.046664,37.3889989 136.523336,37.0390024 136.09,36.559 C135.656665,36.0789976 135.323335,35.4623371 135.09,34.709 C134.856666,33.9556629 134.74,33.0390054 134.74,31.959 L134.74,24.619 Z M150.18,30.739 L152.02,30.739 C152.926671,30.739 153.613331,30.5523352 154.08,30.179 C154.546669,29.8056648 154.78,29.2456704 154.78,28.499 C154.78,27.7389962 154.546669,27.2123348 154.08,26.919 C153.613331,26.6256652 152.926671,26.479 152.02,26.479 L150.18,26.479 L150.18,30.739 Z M154.98,37.699 L152.16,32.579 L150.18,32.579 L150.18,37.699 L147.86,37.699 L147.86,24.619 L152.26,24.619 C152.940003,24.619 153.57333,24.685666 154.16,24.819 C154.74667,24.952334 155.256665,25.1689985 155.69,25.469 C156.123336,25.7690015 156.463332,26.1656642 156.71,26.659 C156.956668,27.1523358 157.08,27.765663 157.08,28.499 C157.08,29.499005 156.843336,30.3056636 156.37,30.919 C155.896664,31.5323364 155.260004,31.972332 154.46,32.239 L157.58,37.699 L154.98,37.699 Z M159.94,34.439 C160.406669,34.8790022 160.939997,35.2356653 161.54,35.509 C162.140003,35.7823347 162.746664,35.919 163.36,35.919 C164.093337,35.919 164.656665,35.7656682 165.05,35.459 C165.443335,35.1523318 165.64,34.7456692 165.64,34.239 C165.64,33.972332 165.59,33.7456676 165.49,33.559 C165.389999,33.3723324 165.250001,33.2090007 165.07,33.069 C164.889999,32.9289993 164.673335,32.7990006 164.42,32.679 C164.166665,32.5589994 163.893335,32.4390006 163.6,32.319 L161.82,31.539 C161.499998,31.405666 161.180002,31.239001 160.86,31.039 C160.539998,30.838999 160.256668,30.5990014 160.01,30.319 C159.763332,30.0389986 159.563334,29.7123352 159.41,29.339 C159.256666,28.9656648 159.18,28.5390024 159.18,28.059 C159.18,27.5389974 159.289999,27.0556689 159.51,26.609 C159.730001,26.1623311 160.033331,25.772335 160.42,25.439 C160.806669,25.105665 161.266664,24.8456676 161.8,24.659 C162.333336,24.4723324 162.919997,24.379 163.56,24.379 C164.333337,24.379 165.07333,24.5289985 165.78,24.829 C166.48667,25.1290015 167.093331,25.5323308 167.6,26.039 L166.4,27.519 C165.986665,27.1723316 165.550002,26.899001 165.09,26.699 C164.629998,26.498999 164.120003,26.399 163.56,26.399 C162.93333,26.399 162.436668,26.5356653 162.07,26.809 C161.703331,27.0823347 161.52,27.4589976 161.52,27.939 C161.52,28.1923346 161.576666,28.4089991 161.69,28.589 C161.803334,28.7690009 161.956666,28.9289993 162.15,29.069 C162.343334,29.2090007 162.566665,29.3356661 162.82,29.449 C163.073335,29.5623339 163.333332,29.6723328 163.6,29.779 L165.36,30.519 C165.746669,30.6790008 166.103332,30.8656656 166.43,31.079 C166.756668,31.2923344 167.036665,31.5389986 167.27,31.819 C167.503334,32.0990014 167.683333,32.4223315 167.81,32.789 C167.936667,33.1556685 168,33.5789976 168,34.059 C168,34.592336 167.893334,35.092331 167.68,35.559 C167.466666,36.025669 167.156669,36.4356649 166.75,36.789 C166.343331,37.1423351 165.850003,37.4223323 165.27,37.629 C164.689997,37.8356677 164.033337,37.939 163.3,37.939 C162.419996,37.939 161.573337,37.772335 160.76,37.439 C159.946663,37.105665 159.22667,36.6323364 158.6,36.019 L159.94,34.439 Z M170.34,24.619 L178.2,24.619 L178.2,26.579 L172.66,26.579 L172.66,29.919 L177.36,29.919 L177.36,31.879 L172.66,31.879 L172.66,35.739 L178.4,35.739 L178.4,37.699 L170.34,37.699 L170.34,24.619 Z M181.02,24.619 L183.34,24.619 L183.34,35.739 L188.76,35.739 L188.76,37.699 L181.02,37.699 L181.02,24.619 Z M191,24.619 L198.9,24.619 L198.9,26.579 L193.32,26.579 L193.32,30.279 L198.06,30.279 L198.06,32.239 L193.32,32.239 L193.32,37.699 L191,37.699 L191,24.619 Z M203.9,24.619 L206.3,24.619 L207.42,31.219 C207.526667,31.9256702 207.636666,32.6256632 207.75,33.319 C207.863334,34.0123368 207.973333,34.7056632 208.08,35.399 L208.16,35.399 C208.293334,34.7056632 208.429999,34.0090035 208.57,33.309 C208.710001,32.6089965 208.853333,31.9123368 209,31.219 L210.62,24.619 L212.62,24.619 L214.24,31.219 C214.386667,31.8990034 214.529999,32.5889965 214.67,33.289 C214.810001,33.9890035 214.953333,34.6923298 215.1,35.399 L215.18,35.399 C215.286667,34.6923298 215.393333,33.9923368 215.5,33.299 C215.606667,32.6056632 215.713333,31.9123368 215.82,31.219 L216.94,24.619 L219.18,24.619 L216.66,37.699 L213.78,37.699 L212.16,30.819 C212.053333,30.3123308 211.953334,29.8090025 211.86,29.309 C211.766666,28.8089975 211.673334,28.3056692 211.58,27.799 L211.5,27.799 C211.406666,28.3056692 211.313334,28.8089975 211.22,29.309 C211.126666,29.8090025 211.026667,30.3123308 210.92,30.819 L209.34,37.699 L206.5,37.699 L203.9,24.619 Z M224.06,23.499 L225.62,23.499 L220.96,40.899 L219.4,40.899 L224.06,23.499 Z M234.42,26.579 L230.64,26.579 L230.64,24.619 L240.5,24.619 L240.5,26.579 L236.74,26.579 L236.74,37.699 L234.42,37.699 L234.42,26.579 Z M241.32,24.619 L243.72,24.619 L244.84,31.219 C244.946667,31.9256702 245.056666,32.6256632 245.17,33.319 C245.283334,34.0123368 245.393333,34.7056632 245.5,35.399 L245.58,35.399 C245.713334,34.7056632 245.849999,34.0090035 245.99,33.309 C246.130001,32.6089965 246.273333,31.9123368 246.42,31.219 L248.04,24.619 L250.04,24.619 L251.66,31.219 C251.806667,31.8990034 251.949999,32.5889965 252.09,33.289 C252.230001,33.9890035 252.373333,34.6923298 252.52,35.399 L252.6,35.399 C252.706667,34.6923298 252.813333,33.9923368 252.92,33.299 C253.026667,32.6056632 253.133333,31.9123368 253.24,31.219 L254.36,24.619 L256.6,24.619 L254.08,37.699 L251.2,37.699 L249.58,30.819 C249.473333,30.3123308 249.373334,29.8090025 249.28,29.309 C249.186666,28.8089975 249.093334,28.3056692 249,27.799 L248.92,27.799 C248.826666,28.3056692 248.733334,28.8089975 248.64,29.309 C248.546666,29.8090025 248.446667,30.3123308 248.34,30.819 L246.76,37.699 L243.92,37.699 L241.32,24.619 Z M258.58,24.619 L260.9,24.619 L260.9,37.699 L258.58,37.699 L258.58,24.619 Z M266.8,26.579 L263.02,26.579 L263.02,24.619 L272.88,24.619 L272.88,26.579 L269.12,26.579 L269.12,37.699 L266.8,37.699 L266.8,26.579 Z M277.66,26.579 L273.88,26.579 L273.88,24.619 L283.74,24.619 L283.74,26.579 L279.98,26.579 L279.98,37.699 L277.66,37.699 L277.66,26.579 Z M285.88,24.619 L293.74,24.619 L293.74,26.579 L288.2,26.579 L288.2,29.919 L292.9,29.919 L292.9,31.879 L288.2,31.879 L288.2,35.739 L293.94,35.739 L293.94,37.699 L285.88,37.699 L285.88,24.619 Z M298.88,30.739 L300.72,30.739 C301.626671,30.739 302.313331,30.5523352 302.78,30.179 C303.246669,29.8056648 303.48,29.2456704 303.48,28.499 C303.48,27.7389962 303.246669,27.2123348 302.78,26.919 C302.313331,26.6256652 301.626671,26.479 300.72,26.479 L298.88,26.479 L298.88,30.739 Z M303.68,37.699 L300.86,32.579 L298.88,32.579 L298.88,37.699 L296.56,37.699 L296.56,24.619 L300.96,24.619 C301.640003,24.619 302.27333,24.685666 302.86,24.819 C303.44667,24.952334 303.956664,25.1689985 304.39,25.469 C304.823335,25.7690015 305.163332,26.1656642 305.41,26.659 C305.656668,27.1523358 305.78,27.765663 305.78,28.499 C305.78,29.499005 305.543336,30.3056636 305.07,30.919 C304.596664,31.5323364 303.960004,31.972332 303.16,32.239 L306.28,37.699 L303.68,37.699 Z" fill="url(#linearGradient-1)"></path>
            </g>
        </g>
    </g>
</svg>