<?xml version="1.0" encoding="UTF-8" standalone="no"?>
<svg width="188px" height="63px" viewBox="0 0 188 63" version="1.1" xmlns="http://www.w3.org/2000/svg" xmlns:xlink="http://www.w3.org/1999/xlink">
    <defs>
        <linearGradient x1="-26.1171377%" y1="50%" x2="119.160081%" y2="50%" id="linearGradient-1">
            <stop stop-color="#98FF49" offset="0%"></stop>
            <stop stop-color="#17E2DC" offset="100%"></stop>
        </linearGradient>
    </defs>
    <g stroke="none" stroke-width="1" fill="none" fill-rule="evenodd">
        <g transform="translate(-558.000000, -834.000000)">
            <g transform="translate(557.647059, 834.500000)">
                <path d="M32.0061505,60 L156.99385,60 C173.015622,60 186,47.0172872 186,31 C186,14.9814044 173.014931,2 156.99385,2 L32.0061505,2 C15.9843781,2 3,14.9827128 3,31 C3,47.0185956 15.9850691,60 32.0061505,60 Z" fill="#0A1115"></path>
                <path d="M32.0061505,0 L156.99385,0 C174.118074,0 188,13.8754084 188,31 C188,48.1208272 174.121221,62 156.99385,62 L32.0061505,62 C14.8819264,62 1,48.1245916 1,31 C1,13.8791728 14.878779,0 32.0061505,0 Z M32.0061505,60 L156.99385,60 C173.015622,60 186,47.0172872 186,31 C186,14.9814044 173.014931,2 156.99385,2 L32.0061505,2 C15.9843781,2 3,14.9827128 3,31 C3,47.0185956 15.9850691,60 32.0061505,60 Z" fill="url(#linearGradient-1)"></path>
                <path d="M54.34,35.06 C54.806669,35.5000022 55.339997,35.8566653 55.94,36.13 C56.540003,36.4033347 57.1466636,36.54 57.76,36.54 C58.493337,36.54 59.0566647,36.3866682 59.45,36.08 C59.8433353,35.7733318 60.04,35.3666692 60.04,34.86 C60.04,34.593332 59.9900005,34.3666676 59.89,34.18 C59.7899995,33.9933324 59.6500009,33.8300007 59.47,33.69 C59.2899991,33.5499993 59.0733346,33.4200006 58.82,33.3 C58.5666654,33.1799994 58.2933348,33.0600006 58,32.94 L56.22,32.16 C55.8999984,32.026666 55.5800016,31.860001 55.26,31.66 C54.9399984,31.459999 54.6566679,31.2200014 54.41,30.94 C54.1633321,30.6599986 53.9633341,30.3333352 53.81,29.96 C53.6566659,29.5866648 53.58,29.1600024 53.58,28.68 C53.58,28.1599974 53.6899989,27.6766689 53.91,27.23 C54.1300011,26.7833311 54.4333314,26.393335 54.82,26.06 C55.2066686,25.726665 55.666664,25.4666676 56.2,25.28 C56.733336,25.0933324 57.3199968,25 57.96,25 C58.7333372,25 59.4733298,25.1499985 60.18,25.45 C60.8866702,25.7500015 61.4933308,26.1533308 62,26.66 L60.8,28.14 C60.3866646,27.7933316 59.9500023,27.520001 59.49,27.32 C59.0299977,27.119999 58.5200028,27.02 57.96,27.02 C57.3333302,27.02 56.8366685,27.1566653 56.47,27.43 C56.1033315,27.7033347 55.92,28.0799976 55.92,28.56 C55.92,28.8133346 55.9766661,29.0299991 56.09,29.21 C56.2033339,29.3900009 56.3566657,29.5499993 56.55,29.69 C56.7433343,29.8300007 56.9666654,29.9566661 57.22,30.07 C57.4733346,30.1833339 57.733332,30.2933328 58,30.4 L59.76,31.14 C60.1466686,31.3000008 60.5033317,31.4866656 60.83,31.7 C61.1566683,31.9133344 61.4366655,32.1599986 61.67,32.44 C61.9033345,32.7200014 62.0833327,33.0433315 62.21,33.41 C62.3366673,33.7766685 62.4,34.1999976 62.4,34.68 C62.4,35.213336 62.2933344,35.713331 62.08,36.18 C61.8666656,36.646669 61.5566687,37.0566649 61.15,37.41 C60.7433313,37.7633351 60.2500029,38.0433323 59.67,38.25 C59.0899971,38.4566677 58.433337,38.56 57.7,38.56 C56.8199956,38.56 55.9733374,38.393335 55.16,38.06 C54.3466626,37.726665 53.6266698,37.2533364 53,36.64 L54.34,35.06 Z M64.74,25.24 L67.06,25.24 L67.06,38.32 L64.74,38.32 L64.74,25.24 Z M69.62,31.82 C69.62,30.753328 69.7799984,29.7966709 70.1,28.95 C70.4200016,28.1033291 70.8599972,27.3866696 71.42,26.8 C71.9800028,26.2133304 72.6399962,25.7666682 73.4,25.46 C74.1600038,25.1533318 74.9799956,25 75.86,25 C76.3133356,25 76.7333314,25.0466662 77.12,25.14 C77.5066686,25.2333338 77.8599984,25.3566659 78.18,25.51 C78.5000016,25.6633341 78.793332,25.839999 79.06,26.04 C79.326668,26.240001 79.559999,26.4466656 79.76,26.66 L78.48,28.1 C78.146665,27.7799984 77.7833353,27.520001 77.39,27.32 C76.9966647,27.119999 76.4933364,27.02 75.88,27.02 C75.2933304,27.02 74.7633357,27.1299989 74.29,27.35 C73.8166643,27.5700011 73.4100017,27.8833313 73.07,28.29 C72.7299983,28.6966687 72.4666676,29.1933304 72.28,29.78 C72.0933324,30.3666696 72,31.026663 72,31.76 C72,33.2533408 72.3399966,34.4233291 73.02,35.27 C73.7000034,36.1166709 74.6999934,36.54 76.02,36.54 C76.3800018,36.54 76.726665,36.4900005 77.06,36.39 C77.393335,36.2899995 77.6666656,36.1466676 77.88,35.96 L77.88,33.14 L75.42,33.14 L75.42,31.24 L79.96,31.24 L79.96,37 C79.5066644,37.4266688 78.913337,37.7933318 78.18,38.1 C77.446663,38.4066682 76.6333378,38.56 75.74,38.56 C74.873329,38.56 74.0666704,38.4133348 73.32,38.12 C72.5733296,37.8266652 71.9266694,37.3933362 71.38,36.82 C70.8333306,36.2466638 70.4033349,35.5400042 70.09,34.7 C69.7766651,33.8599958 69.62,32.9000054 69.62,31.82 L69.62,31.82 Z M82.8,25.24 L85.18,25.24 L89.24,32.6 L90.6,35.38 L90.68,35.38 C90.613333,34.6999966 90.546667,33.9700039 90.48,33.19 C90.413333,32.4099961 90.38,31.653337 90.38,30.92 L90.38,25.24 L92.58,25.24 L92.58,38.32 L90.2,38.32 L86.14,30.96 L84.78,28.18 L84.7,28.18 C84.766667,28.8733368 84.833333,29.5999962 84.9,30.36 C84.966667,31.1200038 85,31.866663 85,32.6 L85,38.32 L82.8,38.32 L82.8,25.24 Z M105.04,38.56 C104.186662,38.56 103.40667,38.4033349 102.7,38.09 C101.99333,37.7766651 101.383336,37.3233363 100.87,36.73 C100.356664,36.1366637 99.9600014,35.4200042 99.68,34.58 C99.3999986,33.7399958 99.26,32.786672 99.26,31.72 C99.26,30.6666614 99.3999986,29.7233375 99.68,28.89 C99.9600014,28.0566625 100.356664,27.3533362 100.87,26.78 C101.383336,26.2066638 101.99333,25.7666682 102.7,25.46 C103.40667,25.1533318 104.186662,25 105.04,25 C105.893338,25 106.67333,25.1533318 107.38,25.46 C108.08667,25.7666682 108.693331,26.2066638 109.2,26.78 C109.706669,27.3533362 110.099999,28.0566625 110.38,28.89 C110.660001,29.7233375 110.8,30.6666614 110.8,31.72 C110.8,32.786672 110.660001,33.7399958 110.38,34.58 C110.099999,35.4200042 109.706669,36.1366637 109.2,36.73 C108.693331,37.3233363 108.08667,37.7766651 107.38,38.09 C106.67333,38.4033349 105.893338,38.56 105.04,38.56 L105.04,38.56 Z M105.04,36.54 C105.546669,36.54 106.009998,36.4266678 106.43,36.2 C106.850002,35.9733322 107.206665,35.6500021 107.5,35.23 C107.793335,34.8099979 108.019999,34.3033363 108.18,33.71 C108.340001,33.1166637 108.42,32.453337 108.42,31.72 C108.42,30.253326 108.113336,29.1033375 107.5,28.27 C106.886664,27.4366625 106.066672,27.02 105.04,27.02 C103.999995,27.02 103.173336,27.4366625 102.56,28.27 C101.946664,29.1033375 101.64,30.253326 101.64,31.72 C101.64,32.453337 101.719999,33.1166637 101.88,33.71 C102.040001,34.3033363 102.269998,34.8099979 102.57,35.23 C102.870001,35.6500021 103.226665,35.9733322 103.64,36.2 C104.053335,36.4266678 104.519997,36.54 105.04,36.54 L105.04,36.54 Z M113.3,25.24 L115.62,25.24 L115.62,32.76 C115.62,33.4666702 115.683333,34.0633309 115.81,34.55 C115.936667,35.0366691 116.116665,35.4266652 116.35,35.72 C116.583334,36.0133348 116.863332,36.2233327 117.19,36.35 C117.516668,36.4766673 117.879998,36.54 118.28,36.54 C118.680002,36.54 119.046665,36.4766673 119.38,36.35 C119.713335,36.2233327 119.996665,36.0133348 120.23,35.72 C120.463334,35.4266652 120.646666,35.0366691 120.78,34.55 C120.913334,34.0633309 120.98,33.4666702 120.98,32.76 L120.98,25.24 L123.22,25.24 L123.22,32.58 C123.22,33.6600054 123.103334,34.5766629 122.87,35.33 C122.636665,36.0833371 122.306669,36.6999976 121.88,37.18 C121.453331,37.6600024 120.93667,38.0099989 120.33,38.23 C119.72333,38.4500011 119.040004,38.56 118.28,38.56 C117.519996,38.56 116.833336,38.4500011 116.22,38.23 C115.606664,38.0099989 115.083335,37.6600024 114.65,37.18 C114.216664,36.6999976 113.883334,36.0833371 113.65,35.33 C113.416665,34.5766629 113.3,33.6600054 113.3,32.58 L113.3,25.24 Z M129.06,27.2 L125.28,27.2 L125.28,25.24 L135.14,25.24 L135.14,27.2 L131.38,27.2 L131.38,38.32 L129.06,38.32 L129.06,27.2 Z" fill="url(#linearGradient-1)"></path>
            </g>
        </g>
    </g>
</svg>